<?xml version="1.0" encoding="utf-8"?>
<!-- Generator: Adobe Illustrator 16.0.0, SVG Export Plug-In . SVG Version: 6.00 Build 0)  -->
<!DOCTYPE svg PUBLIC "-//W3C//DTD SVG 1.1//EN" "http://www.w3.org/Graphics/SVG/1.1/DTD/svg11.dtd">
<svg version="1.1" id="Layer_1" xmlns="http://www.w3.org/2000/svg" xmlns:xlink="http://www.w3.org/1999/xlink" x="0px" y="0px"
	 width="250px" height="50px" viewBox="0 0 250 50" enable-background="new 0 0 250 50" xml:space="preserve">
<g>
	<g>
		<path fill="#F97432" d="M19.377,2.02c-10.06,0-18.213,8.153-18.213,18.213c0,5.029,2.038,9.582,5.333,12.881l0,0l14.799,14.803
			l5.528-5.529l0,0L12.028,27.582l0,0c-1.88-1.881-3.045-4.479-3.045-7.35c0-5.742,4.654-10.395,10.395-10.395
			c5.741,0,10.393,4.652,10.393,10.395c0,5.623-4.463,10.199-10.044,10.385l6.492,6.494c6.668-2.705,11.375-9.24,11.375-16.879
			C37.592,10.173,29.434,2.02,19.377,2.02z"/>
		<circle fill="#F97432" cx="19.377" cy="20.232" r="7.095"/>
	</g>
	<path fill="#4F4E4E" d="M53.063,47.09c-0.599,0.594-1.305,0.896-2.115,0.896c-0.822,0-1.517-0.303-2.095-0.896
		c-0.579-0.6-0.87-1.277-0.87-2.035V13.5c0-0.795,0.284-1.476,0.845-2.039c0.561-0.559,1.23-0.84,2.01-0.84
		c0.777,0,1.446,0.217,2.007,0.652c0.563,0.432,0.898,0.959,1.006,1.575c2.281-1.483,4.744-2.228,7.383-2.228
		c3.621,0,6.716,1.338,9.29,4.018c2.569,2.682,3.855,5.889,3.855,9.613c0,3.73-1.287,6.906-3.855,9.531
		c-2.573,2.629-5.669,3.939-9.29,3.939c-2.787,0-5.209-0.74-7.277-2.229v9.561C53.958,45.812,53.659,46.49,53.063,47.09z
		 M66.342,18.766c-1.413-1.48-3.133-2.225-5.159-2.225c-2.03,0-3.741,0.749-5.136,2.255c-1.392,1.501-2.09,3.376-2.09,5.618
		c0,2.248,0.708,4.004,2.119,5.271c1.377,1.516,3.069,2.279,5.078,2.279c2.01,0,3.731-0.764,5.161-2.279
		c1.429-1.525,2.145-3.322,2.145-5.408C68.459,22.198,67.754,20.361,66.342,18.766z"/>
	<path fill="#4F4E4E" d="M104.196,23.492c0,0.797-0.267,1.439-0.791,1.928c-0.524,0.488-1.221,0.732-2.089,0.732h-17.27
		c0.325,1.559,0.94,2.752,1.845,3.586c1.159,1.34,2.852,2.143,5.08,2.416c2.229,0.271,4.153-0.174,5.783-1.33
		c0.542-0.578,1.265-0.867,2.173-0.867c0.904,0,1.538,0.234,1.899,0.705c1.014,1.119,1.014,2.301,0,3.529
		c-2.604,2.387-5.802,3.574-9.586,3.557c-3.785-0.018-6.952-1.346-9.503-3.992c-2.551-2.643-3.845-5.828-3.883-9.557
		c0.038-3.729,1.333-6.925,3.883-9.586c2.552-2.659,5.638-3.992,9.259-3.992c3.621,0,6.671,1.188,9.154,3.56
		c2.478,2.369,3.827,5.382,4.046,9.04V23.492z M91.107,15.781c-2.102,0.105-3.784,0.76-5.051,1.955
		c-1.269,1.195-2.031,2.461-2.281,3.802h15.367c-0.322-1.265-1.204-2.499-2.634-3.693C95.077,16.648,93.279,15.961,91.107,15.781z"
		/>
	<path fill="#4F4E4E" d="M110.766,33.865c-2.537-2.605-3.804-5.783-3.804-9.532c0-3.748,1.267-6.968,3.804-9.664
		c2.532-2.7,5.611-4.048,9.232-4.048c2.751,0,5.176,0.762,7.276,2.283c0.145-0.65,0.488-1.199,1.032-1.631
		c0.542-0.436,1.187-0.652,1.929-0.652c0.741,0,1.394,0.281,1.952,0.84c0.56,0.563,0.845,1.244,0.845,2.039v20.961
		c0,3.588-1.278,6.656-3.829,9.207c-2.551,2.553-5.621,3.826-9.205,3.826c-2.064,0-3.963-0.453-5.703-1.355
		c-0.725-0.326-1.214-0.877-1.467-1.656c-0.254-0.777-0.198-1.527,0.161-2.256c0.365-0.723,0.917-1.213,1.66-1.465
		c0.741-0.254,1.493-0.217,2.25,0.109c0.941,0.506,2.129,0.76,3.558,0.76c1.431,0,2.807-0.551,4.128-1.654
		c1.322-1.105,2.163-2.492,2.527-4.158c-2.102,1.451-4.473,2.174-7.115,2.174C116.376,37.992,113.298,36.615,110.766,33.865z
		 M112.828,24.36c0,2.138,0.688,3.964,2.065,5.487c1.375,1.52,3.085,2.279,5.13,2.279c2.05,0,3.757-0.742,5.132-2.225
		c1.376-1.484,2.066-3.332,2.066-5.542c0-2.208-0.697-4.081-2.093-5.617c-1.394-1.543-3.088-2.31-5.077-2.31
		c-1.993,0-3.695,0.786-5.105,2.362C113.536,20.369,112.828,22.223,112.828,24.36z"/>
	<g>
		<path fill="#4F4E4E" d="M145.27,4.941v1.143c0,0.832-0.282,1.539-0.841,2.115c-0.562,0.58-1.248,0.869-2.066,0.869
			c-0.815,0-1.51-0.289-2.09-0.869c-0.577-0.576-0.866-1.283-0.866-2.115V4.941c0-0.793,0.289-1.482,0.866-2.062
			c0.58-0.577,1.274-0.866,2.09-0.866c0.818,0,1.504,0.275,2.066,0.84C144.987,3.414,145.27,4.111,145.27,4.941z"/>
		<path fill="#4F4E4E" d="M140.245,11.518c0.56-0.559,1.259-0.842,2.09-0.842c0.836,0,1.531,0.283,2.094,0.842
			c0.559,0.563,0.841,1.275,0.841,2.146v21.179c0,0.834-0.282,1.529-0.841,2.092c-0.562,0.562-1.248,0.842-2.066,0.842
			c-0.815,0-1.51-0.291-2.09-0.871c-0.577-0.576-0.866-1.268-0.866-2.062V13.663C139.406,12.793,139.683,12.081,140.245,11.518z"/>
	</g>
	<g>
		<path fill="#F97432" d="M156.629,47.09c-0.597,0.594-1.303,0.896-2.115,0.896c-0.819,0-1.516-0.303-2.092-0.896
			c-0.581-0.6-0.87-1.277-0.87-2.035V13.5c0-0.795,0.277-1.476,0.84-2.039c0.564-0.559,1.231-0.84,2.011-0.84
			c0.777,0,1.449,0.217,2.009,0.652c0.563,0.432,0.898,0.959,1.007,1.575c2.28-1.483,4.743-2.228,7.387-2.228
			c3.616,0,6.712,1.338,9.287,4.018c2.567,2.682,3.855,5.889,3.855,9.613c0,3.73-1.288,6.906-3.855,9.531
			c-2.575,2.629-5.671,3.939-9.287,3.939c-2.79,0-5.213-0.74-7.278-2.229v9.561C157.526,45.812,157.225,46.49,156.629,47.09z
			 M169.91,18.766c-1.412-1.48-3.135-2.225-5.161-2.225c-2.029,0-3.738,0.749-5.133,2.255c-1.395,1.501-2.09,3.376-2.09,5.618
			c0,2.248,0.706,4.004,2.116,5.271c1.377,1.516,3.069,2.279,5.079,2.279s3.729-0.764,5.159-2.279
			c1.428-1.525,2.145-3.322,2.145-5.408C172.025,22.198,171.319,20.361,169.91,18.766z"/>
		<path fill="#F97432" d="M207.764,23.492c0,0.797-0.267,1.439-0.792,1.928s-1.223,0.732-2.087,0.732h-17.272
			c0.323,1.559,0.941,2.752,1.845,3.586c1.16,1.34,2.853,2.143,5.079,2.416c2.229,0.271,4.155-0.174,5.783-1.33
			c0.541-0.578,1.268-0.867,2.174-0.867c0.904,0,1.538,0.234,1.9,0.705c1.015,1.119,1.015,2.301,0,3.529
			c-2.606,2.387-5.805,3.574-9.586,3.557c-3.786-0.018-6.954-1.346-9.504-3.992c-2.554-2.643-3.846-5.828-3.882-9.557
			c0.036-3.729,1.328-6.925,3.882-9.586c2.55-2.659,5.64-3.992,9.26-3.992s6.67,1.188,9.153,3.56
			c2.476,2.369,3.828,5.382,4.047,9.04V23.492z M194.675,15.781c-2.104,0.105-3.787,0.76-5.056,1.955
			c-1.265,1.195-2.025,2.461-2.277,3.802h15.366c-0.321-1.265-1.201-2.499-2.633-3.693
			C198.647,16.648,196.848,15.961,194.675,15.781z"/>
		<path fill="#F97432" d="M214.332,33.865c-2.535-2.605-3.804-5.783-3.804-9.532c0-3.748,1.269-6.968,3.804-9.664
			c2.532-2.7,5.61-4.048,9.235-4.048c2.748,0,5.169,0.762,7.272,2.283c0.148-0.65,0.491-1.199,1.035-1.631
			c0.538-0.436,1.185-0.652,1.926-0.652s1.396,0.281,1.953,0.84c0.562,0.563,0.845,1.244,0.845,2.039v20.961
			c0,3.588-1.276,6.656-3.83,9.207c-2.553,2.553-5.622,3.826-9.201,3.826c-2.068,0-3.966-0.453-5.706-1.355
			c-0.727-0.326-1.212-0.877-1.466-1.656c-0.255-0.777-0.197-1.527,0.161-2.256c0.364-0.723,0.915-1.213,1.657-1.465
			c0.743-0.254,1.495-0.217,2.251,0.109c0.945,0.506,2.131,0.76,3.562,0.76c1.431,0,2.806-0.551,4.127-1.654
			c1.32-1.105,2.163-2.492,2.525-4.158c-2.102,1.451-4.475,2.174-7.112,2.174C219.942,37.992,216.864,36.615,214.332,33.865z
			 M216.396,24.36c0,2.138,0.688,3.964,2.062,5.487c1.379,1.52,3.089,2.279,5.133,2.279c2.047,0,3.757-0.742,5.132-2.225
			c1.377-1.484,2.067-3.332,2.067-5.542c0-2.208-0.701-4.081-2.094-5.617c-1.396-1.543-3.085-2.31-5.076-2.31
			c-1.992,0-3.693,0.786-5.105,2.362C217.103,20.369,216.396,22.223,216.396,24.36z"/>
		<g>
			<path fill="#F97432" d="M248.836,4.941v1.143c0,0.832-0.279,1.539-0.841,2.115c-0.561,0.58-1.247,0.869-2.063,0.869
				s-1.513-0.289-2.092-0.869c-0.578-0.576-0.867-1.283-0.867-2.115V4.941c0-0.793,0.289-1.482,0.867-2.062
				c0.579-0.577,1.275-0.866,2.092-0.866s1.503,0.275,2.063,0.84C248.557,3.414,248.836,4.111,248.836,4.941z"/>
			<path fill="#F97432" d="M243.813,11.518c0.559-0.559,1.257-0.842,2.089-0.842s1.532,0.283,2.093,0.842
				c0.562,0.563,0.841,1.275,0.841,2.146v21.179c0,0.834-0.279,1.529-0.841,2.092c-0.561,0.562-1.247,0.842-2.063,0.842
				s-1.513-0.291-2.092-0.871c-0.578-0.576-0.867-1.268-0.867-2.062V13.663C242.973,12.793,243.249,12.081,243.813,11.518z"/>
		</g>
	</g>
</g>
</svg>
